<svg xmlns="http://www.w3.org/2000/svg" xmlns:xlink="http://www.w3.org/1999/xlink" width="80" height="80" viewBox="0 0 80 80">
    <defs>
        <circle id="a" cx="40" cy="40" r="40"/>
    </defs>
    <g fill="none" fill-rule="evenodd">
        <mask id="b" fill="#fff">
            <use xlink:href="#a"/>
        </mask>
        <use fill="#FF368D" xlink:href="#a"/>
        <g stroke="#FFF" stroke-width="2" mask="url(#b)">
            <path d="M49.102 29.609l-18.99-.575 1.853 17.952a4.5 4.5 0 0 0 4.476 4.038h6.371a4.5 4.5 0 0 0 4.476-4.033l1.814-17.382z"/>
            <path stroke-linecap="square" d="M30 26h19.063"/>
            <path stroke-linecap="round" d="M13.486 77c-1.066-7.284-.378-12.163 2.064-14.636 1.67-1.692 5.786-2.848 10.321-4.182C27.27 57.77 28.645 56.377 30 54M66.514 77c1.066-7.284.378-12.163-2.064-14.636-1.67-1.692-5.786-2.848-10.321-4.182C52.73 57.77 51.355 56.377 50 54"/>
        </g>
        <path stroke="#FFF" stroke-linecap="round" stroke-width="2" d="M48 22l5-4 5 4 2-1" mask="url(#b)"/>
    </g>
</svg>
