<svg xmlns="http://www.w3.org/2000/svg" xmlns:xlink="http://www.w3.org/1999/xlink" width="78" height="86" viewBox="0 0 78 86">
    <defs>
        <path id="a" d="M73.61 23.203l-3.03-1.142 1.731-.613a6.897 6.897 0 0 0 3.985-3.685c.778-1.755.866-3.685.26-5.44l-2.513-6.935c-1.299-3.685-5.368-5.615-9.004-4.299l-25.29 9.215c-.26.089-.433.175-.606.35L11.52.65c-2.943-1.052-6.15.528-7.188 3.421L.955 13.725c-.521 1.406-.433 2.982.172 4.388a5.25 5.25 0 0 0 3.204 2.896l3.031 1.142-1.732.614a6.897 6.897 0 0 0-3.985 3.685c-.778 1.755-.866 3.685-.26 5.44l2.513 6.845c1.038 2.897 3.724 4.738 6.583 4.738.778 0 1.56-.175 2.337-.44l25.72-9.303c.088-.089.26-.089.345-.175l27.451 10.003c.606.264 1.3.35 1.905.35a5.606 5.606 0 0 0 5.284-3.775l3.376-9.563c.52-1.406.433-2.983-.173-4.388-.605-1.488-1.728-2.455-3.115-2.979z"/>
        <path id="c" d="M10.437 12.724a2.258 2.258 0 0 0-2.338-.263c-1.21.613-4.935 4.915-6.583 10.44C.045 27.64.478 32.382 2.643 36.505c3.03 5.529 9.093 9.128 15.24 9.128h.693c6.323-.35 12.385-4.563 15.07-10.53 1.472-3.336 1.993-7.021 1.3-10.531-.779-4.124-3.12-7.285-5.457-10.441-.345-.528-.778-.967-1.127-1.491a150.708 150.708 0 0 0-6.15-7.81c-.954-1.14-1.82-2.282-2.598-3.246-.52-.613-1.21-.877-1.992-.788-.778.09-1.387.614-1.732 1.316-.173.35-.345.789-.606 1.228-1.387 2.896-3.552 7.195-.088 14.743.26.528.521.967.866 1.491.606.878 1.039 1.58.954 2.808-.088 1.844-1.21 2.896-2.253 3.335-1.126.439-2.337.264-3.203-.528-1.732-1.58-1.905-5.265-.606-9.917.433-1.056.26-1.933-.517-2.547z"/>
    </defs>
    <g fill="none" fill-rule="evenodd">
        <g transform="translate(0 42)">
            <mask id="b" fill="#fff">
                <use xlink:href="#a"/>
            </mask>
            <use fill="#A06D60" fill-rule="nonzero" xlink:href="#a"/>
            <path fill="#AB7B6E" d="M41 10.077L3.91 23-7 13.308 7.182-5 41 7.923z" mask="url(#b)"/>
            <path fill="#895C50" d="M39 33l32-11-22 16-11-2z" mask="url(#b)"/>
        </g>
        <g transform="translate(21)">
            <mask id="d" fill="#fff">
                <use xlink:href="#c"/>
            </mask>
            <use fill="#EB5731" fill-rule="nonzero" xlink:href="#c"/>
            <circle cx="12" cy="15" r="26" fill="#FF5F36" mask="url(#d)"/>
        </g>
    </g>
</svg>
