<svg xmlns="http://www.w3.org/2000/svg" xmlns:xlink="http://www.w3.org/1999/xlink" width="36" height="46" viewBox="0 0 36 46">
    <defs>
        <path id="a" d="M10.437 12.724a2.258 2.258 0 0 0-2.338-.263c-1.21.613-4.935 4.915-6.583 10.44C.045 27.64.478 32.382 2.643 36.505c3.03 5.529 9.093 9.128 15.24 9.128h.693c6.323-.35 12.385-4.563 15.07-10.53 1.472-3.336 1.993-7.021 1.3-10.531-.779-4.124-3.12-7.285-5.457-10.441-.345-.528-.778-.967-1.127-1.491a150.708 150.708 0 0 0-6.15-7.81c-.954-1.14-1.82-2.282-2.598-3.246-.52-.613-1.21-.877-1.992-.788-.778.09-1.387.614-1.732 1.316-.173.35-.345.789-.606 1.228-1.387 2.896-3.552 7.195-.088 14.743.26.528.521.967.866 1.491.606.878 1.039 1.58.954 2.808-.088 1.844-1.21 2.896-2.253 3.335-1.126.439-2.337.264-3.203-.528-1.732-1.58-1.905-5.265-.606-9.917.433-1.056.26-1.933-.517-2.547z"/>
    </defs>
    <g fill="none" fill-rule="evenodd">
        <mask id="b" fill="#fff">
            <use xlink:href="#a"/>
        </mask>
        <use fill="#F8A757" fill-rule="nonzero" xlink:href="#a"/>
        <circle cx="12" cy="15" r="26" fill="#FFB872" mask="url(#b)"/>
        <path fill="#FFC997" d="M13.5 27c4.5 1 9.5-7 5.5-9.5S16.538 8 13.5 8 8 12.253 8 17.5 9 26 13.5 27z" mask="url(#b)"/>
    </g>
</svg>
