<svg xmlns="http://www.w3.org/2000/svg" width="83" height="13" viewBox="0 0 83 13">
    <g fill="none" fill-rule="evenodd">
        <path fill="#00D5D6" d="M2.837 12.48V.333H.042V12.48h2.795zm4.959 0V3.76H5v8.72h2.796zM4.85 1.53c0 .883.615 1.449 1.547 1.449.932 0 1.548-.566 1.548-1.448S7.33.083 6.398.083 4.851.65 4.851 1.531zm7.82 10.95V7.322c0-.999.6-1.332 1.315-1.332.849 0 1.265.5 1.265 1.298v5.192h2.795V6.856c0-2.014-1.065-3.295-3.062-3.295-1.115 0-1.98.416-2.43 1.215V3.76H9.877v8.719h2.795zm10.084 0V8.287l2.313 4.193h3.112L25.6 8.037l2.497-4.276h-3.112l-2.23 4.043V.333H19.96V12.48h2.795z"/>
        <g fill="#460037">
            <path d="M45.608 9.647l-3.156 2.025.073-4.16zM29.12 7.41l2.314-1.542v3.085z"/>
        </g>
        <path fill="#460037" d="M41.259 7.538v1.165c0 2.296-1.531 3.977-4.243 3.977-2.713 0-4.244-1.681-4.244-3.977V7.538c0-2.296 1.531-3.977 4.244-3.977 2.712 0 4.243 1.68 4.243 3.977zm-2.712-.15c0-.882-.466-1.614-1.531-1.614s-1.531.732-1.531 1.614v1.464c0 .882.466 1.615 1.53 1.615 1.066 0 1.532-.733 1.532-1.615V7.388z"/>
        <path fill="#FF5F36" d="M53.373 3.76h-2.396l-1.598 5.292-.982-5.291h-2.712l2.247 8.719h2.529l1.714-5.275 1.714 5.275h2.529l2.246-8.72h-2.712l-.982 5.292zM62.675 12.48V3.76h-2.796v8.72zM68.648 12.68c2.396 0 4.044-1.481 4.094-3.561h-2.53c-.05.715-.532 1.348-1.514 1.348-1.031 0-1.514-.65-1.514-1.615V7.388c0-.965.483-1.614 1.514-1.614.982 0 1.465.632 1.514 1.348h2.53c-.05-2.08-1.698-3.561-4.094-3.561-2.745 0-4.26 1.68-4.26 3.994v1.131c0 2.313 1.515 3.994 4.26 3.994zM77.135 12.48V7.322c0-.999.599-1.332 1.314-1.332.849 0 1.265.5 1.265 1.298v5.192h2.795V6.856c0-2.014-1.065-3.295-3.061-3.295-1.015 0-1.914.466-2.313 1.131V.332h-2.796V12.48h2.796zM59.73 1.53c0 .883.615 1.449 1.547 1.449.932 0 1.547-.566 1.547-1.448S62.21.083 61.277.083c-.932 0-1.548.566-1.548 1.448z"/>
    </g>
</svg>
